<svg width="320" height="320" viewBox="0 0 320 320" fill="none" xmlns="http://www.w3.org/2000/svg">
<circle cx="162.5" cy="156.5" r="126.5" fill="url(#paint0_linear)"/>
<path d="M158.529 52.3284C194.029 49.3284 245.029 66.3284 250.529 126.328C250.862 137.495 247.729 165.628 232.529 188.828C227.529 195.328 215.029 206.328 216.029 225.328C216.862 233.328 220.829 252.328 230.029 264.328C215.029 273.328 192.529 287.328 141.529 281.328C148.529 270.328 139.529 264.828 136.029 248.828C118.696 253.662 84.9289 258.128 88.5289 237.328C89.4808 231.828 94.5289 226.828 86.5289 220.328C84.0289 217.328 83.9289 216.028 85.5289 212.828C83.0289 209.828 80.5289 209.828 85.5289 198.328C85.5288 192.828 65.5289 191.828 69.5289 184.328C72.0289 174.328 85.5289 153.328 86.5289 153.328C87.4788 150.795 87.0252 147.861 85.6759 144.78C85.4273 144.213 85.181 143.642 84.9425 143.068C83.701 140.078 82.674 136.999 82.6573 133.795C82.656 133.541 82.661 133.285 82.6728 133.029C84.2989 97.811 100.26 57.2525 158.529 52.3284Z" fill="white"/>
<path d="M82.6728 133.029C84.2989 97.811 100.26 57.2525 158.529 52.3284C194.029 49.3284 245.029 66.3284 250.529 126.328C250.862 137.495 247.729 165.628 232.529 188.828C227.529 195.328 215.029 206.328 216.029 225.328C216.862 233.328 220.829 252.328 230.029 264.328C215.029 273.328 192.529 287.328 141.529 281.328C148.529 270.328 139.529 264.828 136.029 248.828C118.696 253.662 84.9289 258.128 88.5289 237.328C89.4808 231.828 94.5289 226.828 86.5289 220.328C84.0289 217.328 83.9289 216.028 85.5289 212.828C83.0289 209.828 80.5289 209.828 85.5289 198.328C85.5288 192.828 65.5289 191.828 69.5289 184.328C72.0289 174.328 85.5289 153.328 86.5289 153.328C87.4788 150.795 87.0252 147.861 85.6759 144.78M82.6728 133.029V133.029C82.4837 137.126 84.0306 141.023 85.6759 144.78V144.78M82.6728 133.029C82.661 133.285 82.656 133.541 82.6573 133.795C82.674 136.999 83.701 140.078 84.9425 143.068C85.181 143.642 85.4273 144.213 85.6759 144.78M106.529 94.3284L114.029 84.8284L129.029 78.3284L136.029 71.3284L158.529 65.8284L173.029 67.8284L182.029 63.8284L189.029 64.8284L200.029 73.3284H209.529L216.529 76.8284L222.529 84.8284L225.529 95.8284L236.029 102.828L238.529 111.328V118.828V126.328L235.029 133.328L225.529 137.328L223.529 145.828L221.029 152.328L214.529 158.328L204.529 162.328L196.529 163.828L206.529 175.828L204.529 178.328L187.029 169.828L170.029 152.328L161.529 147.828L151.029 148.828L138.029 144.328L132.529 137.328L117.529 135.328L106.529 122.828L101.029 108.828L106.529 94.3284Z" stroke="white"/>
<path d="M108 95L115.5 84.5L130 78L135.5 71.5L159 65L174 68L182 65H191L202 74H210.5L219 78L223.5 86.5L226 96.5L237 103L240 112.5V125L234.5 133L226 137L221.5 153L214 159L206 162L197.5 163.5L207.5 176L206 178.5L188.5 169.5L170.5 153L162.5 148L152 149.5L140 145L133.5 138L118.5 135.5L108 123.5L102 110L108 95Z" fill="url(#paint1_linear)" stroke="white"/>
<path d="M221 119.5L238.5 113V125L221 119.5Z" fill="#35495E" fill-opacity="0.43"/>
<path d="M169 110L131.5 78.5L136 72.5L169 110Z" fill="#41B883" fill-opacity="0.2"/>
<path d="M159 66L168.5 109.5L146.5 69.5L159 66Z" fill="#41B883" fill-opacity="0.2"/>
<path d="M224.5 97.5L204 117.5L235.5 103.5L224.5 97.5Z" fill="#35495E" fill-opacity="0.22"/>
<path d="M221 119.5L225 136.5L233.5 132L221 119.5Z" fill="#35495E" fill-opacity="0.35"/>
<path d="M204.5 117.5L225 136.5L220.5 119.5L238.5 113L235.5 103.5L204.5 117.5Z" fill="url(#paint2_linear)" fill-opacity="0.24"/>
<path d="M173 120.5L103 109.5L108.5 123.5L173 120.5Z" fill="#41B883" fill-opacity="0.24"/>
<path d="M172 120.5L119 134.5L109 123.5L172 120.5Z" fill="url(#paint3_linear)" fill-opacity="0.22"/>
<path d="M185 135L196.5 163L205.5 175.5V177.5L189 169L185 135Z" fill="url(#paint4_linear)" fill-opacity="0.88"/>
<path d="M188.5 168.5L185 135.5L176.5 157.5L188.5 168.5Z" fill="#41B883" fill-opacity="0.5"/>
<path d="M189.5 106L191 66L201.5 75L189.5 106Z" fill="url(#paint5_linear)" fill-opacity="0.2"/>
<path d="M190 105.5L210 75L218.5 79L190 105.5Z" fill="url(#paint6_linear)" fill-opacity="0.29"/>
<path d="M177 108V86L182.5 72L186 113.5L207 148L172.5 117L156.5 115L177 108Z" fill="url(#paint7_linear)"/>
<defs>
<linearGradient id="paint0_linear" x1="-5.00001" y1="230" x2="342" y2="53" gradientUnits="userSpaceOnUse">
<stop offset="0.0595333" stop-color="#41B883"/>
<stop offset="1" stop-color="#35495E"/>
</linearGradient>
<linearGradient id="paint1_linear" x1="102" y1="207.5" x2="255.5" y2="92" gradientUnits="userSpaceOnUse">
<stop stop-color="#35495E"/>
<stop offset="1" stop-color="#41B883"/>
</linearGradient>
<linearGradient id="paint2_linear" x1="235" y1="97" x2="218" y2="128.5" gradientUnits="userSpaceOnUse">
<stop stop-color="#41B883"/>
<stop offset="1" stop-color="#35495E" stop-opacity="0.88"/>
</linearGradient>
<linearGradient id="paint3_linear" x1="134" y1="120" x2="143" y2="134" gradientUnits="userSpaceOnUse">
<stop stop-color="#35495E"/>
<stop offset="1" stop-color="#41B883"/>
</linearGradient>
<linearGradient id="paint4_linear" x1="211.5" y1="181.5" x2="185" y2="137.5" gradientUnits="userSpaceOnUse">
<stop stop-color="#35495E"/>
<stop offset="1" stop-color="#41B883"/>
</linearGradient>
<linearGradient id="paint5_linear" x1="195.5" y1="66" x2="180.5" y2="145" gradientUnits="userSpaceOnUse">
<stop stop-color="#35495E"/>
<stop offset="1" stop-color="#41B883" stop-opacity="0"/>
</linearGradient>
<linearGradient id="paint6_linear" x1="204.25" y1="75" x2="189" y2="110" gradientUnits="userSpaceOnUse">
<stop offset="0.457922" stop-color="#35495E"/>
<stop offset="1" stop-color="#41B883"/>
</linearGradient>
<linearGradient id="paint7_linear" x1="181.75" y1="72" x2="156" y2="151" gradientUnits="userSpaceOnUse">
<stop stop-color="#41B883"/>
<stop offset="1" stop-color="#35495E"/>
</linearGradient>
</defs>
</svg>
